<svg width="21" height="18" viewBox="0 0 21 18" fill="none" xmlns="http://www.w3.org/2000/svg">
<path d="M10.4835 17.6899C10.1439 17.6941 9.80693 17.6306 9.49216 17.5031C9.1774 17.3756 8.89117 17.1867 8.65018 16.9474L2.27935 10.5308C1.5215 9.79001 0.970512 8.86395 0.681075 7.84449C0.391637 6.82503 0.373806 5.7476 0.629351 4.71911C0.900377 3.7255 1.42206 2.81815 2.1444 2.08402C2.86675 1.34989 3.76554 0.813589 4.75464 0.52652C5.74374 0.239451 6.78999 0.211234 7.79313 0.444573C8.79626 0.677913 9.72265 1.16499 10.4835 1.85911C11.2444 1.16499 12.1708 0.677913 13.1739 0.444573C14.177 0.211234 15.2233 0.239451 16.2124 0.52652C17.2015 0.813589 18.1003 1.34989 18.8226 2.08402C19.545 2.81815 20.0667 3.7255 20.3377 4.71911C20.5984 5.75672 20.5805 6.84476 20.286 7.87327C19.9914 8.90178 19.4306 9.83431 18.6602 10.5766L12.2435 16.9933C11.7675 17.442 11.1377 17.6914 10.4835 17.6899ZM6.42268 1.66661C5.43099 1.66661 4.46604 1.98826 3.67268 2.58328C2.83383 3.19871 2.22932 4.08124 1.95852 5.08578C1.76102 5.88857 1.77909 6.72928 2.01088 7.52285C2.24267 8.31642 2.67997 9.03467 3.27852 9.60495L9.69518 16.0216C9.91678 16.2422 10.2167 16.366 10.5294 16.366C10.842 16.366 11.1419 16.2422 11.3635 16.0216L17.7802 9.65078C18.3713 9.06518 18.7965 8.33323 19.0123 7.52963C19.2281 6.72603 19.2268 5.87955 19.0085 5.07661C18.7382 4.07672 18.1373 3.19786 17.3035 2.58328C16.3562 1.89073 15.1835 1.57897 14.0173 1.70967C12.8511 1.84038 11.7765 2.40403 11.006 3.28911C10.9378 3.3584 10.8564 3.41343 10.7667 3.45099C10.677 3.48855 10.5808 3.50789 10.4835 3.50789C10.3863 3.50789 10.29 3.48855 10.2003 3.45099C10.1106 3.41343 10.0293 3.3584 9.96102 3.28911C9.52282 2.77988 8.97981 2.37128 8.36913 2.09125C7.75845 1.81122 7.09451 1.66638 6.42268 1.66661Z" fill="white"/>
</svg>
