<svg width="16" height="16" viewBox="0 0 16 16" fill="none" xmlns="http://www.w3.org/2000/svg">
<path d="M15.1884 14.8523L10.9228 10.5867C11.749 9.56613 12.2465 8.26926 12.2465 6.85678C12.2465 3.58307 9.58278 0.919334 6.30907 0.919334C3.03535 0.919334 0.371643 3.58304 0.371643 6.85676C0.371643 10.1305 3.03538 12.7942 6.3091 12.7942C7.72157 12.7942 9.01844 12.2967 10.039 11.4705L14.3046 15.7361C14.4265 15.8579 14.5865 15.9192 14.7465 15.9192C14.9065 15.9192 15.0665 15.8579 15.1884 15.7361C15.4328 15.4917 15.4328 15.0967 15.1884 14.8523ZM6.3091 11.5442C3.72411 11.5442 1.62164 9.44174 1.62164 6.85676C1.62164 4.27177 3.72411 2.1693 6.3091 2.1693C8.89408 2.1693 10.9965 4.27177 10.9965 6.85676C10.9965 9.44174 8.89405 11.5442 6.3091 11.5442Z" fill="black"/>
</svg>
