<svg width="23" height="14" viewBox="0 0 23 14" fill="none" xmlns="http://www.w3.org/2000/svg">
<path d="M1.02628 0.240723C1.78955 0.240723 2.95263 0.240723 3.60686 0.240723C3.93397 0.240723 4.1884 0.4588 4.29743 0.749569C4.62455 1.69457 5.35147 3.7663 6.18744 5.1838C7.31417 7.03745 8.04109 7.72803 8.51359 7.65534C8.98609 7.5463 8.8407 6.31053 8.8407 5.32918C8.8407 4.34784 8.94974 2.67592 8.47724 1.91265L7.75032 0.858608C7.56859 0.604184 7.75032 0.277069 8.04109 0.277069H12.1846C12.5844 0.277069 12.9115 0.604184 12.9115 1.00399V6.27418C12.9115 6.27418 13.0932 7.21918 14.1109 6.23784C15.1286 5.25649 16.219 3.43918 17.1276 1.58553L17.4911 0.713223C17.6001 0.4588 17.8545 0.277069 18.1453 0.277069H20.8349C21.3438 0.277069 21.7072 0.785915 21.5255 1.25842L21.2347 2.02168C21.2347 2.02168 20.2534 3.98438 19.2357 5.36553C18.218 6.78303 17.9999 7.11015 18.1453 7.47361C18.2907 7.83707 20.9076 10.2723 21.5619 11.4353C21.7436 11.7625 21.889 12.0532 22.0344 12.3076C22.2888 12.7801 21.9253 13.398 21.3801 13.398H18.327C18.0726 13.398 17.8182 13.2526 17.7092 13.0346L17.4184 12.5621C17.4184 12.5621 15.5647 10.3813 14.438 9.69072C13.2749 9.03649 13.3113 9.98149 13.3113 9.98149V11.9078C13.3113 12.7075 12.657 13.3617 11.8574 13.3617H11.1305C11.1305 13.3617 7.13243 13.3617 3.93397 8.60034C1.42609 4.89303 0.590127 2.49418 0.299358 1.11303C0.226666 0.676876 0.553781 0.240723 1.02628 0.240723Z" fill="#5181B8"/>
</svg>
